<mxfile host="app.diagrams.net" modified="2024-05-14T21:09:23.187Z" agent="Mozilla/5.0 (Windows NT 10.0; Win64; x64) AppleWebKit/537.36 (KHTML, like Gecko) Chrome/124.0.0.0 Safari/537.36" etag="JZM8eplR-A-kmKwbWIWx" version="24.3.1" type="device">
  <diagram name="Page-1" id="3kEfgfkoPcbjnp9xudNS">
    <mxGraphModel dx="3088" dy="2059" grid="1" gridSize="10" guides="1" tooltips="1" connect="1" arrows="1" fold="1" page="1" pageScale="1" pageWidth="827" pageHeight="1169" math="0" shadow="0">
      <root>
        <mxCell id="0" />
        <mxCell id="1" parent="0" />
        <mxCell id="jj6mDVSmWfJWmYbKzBOA-1" value="BOOK" style="swimlane;fontStyle=1;align=center;verticalAlign=top;childLayout=stackLayout;horizontal=1;startSize=26;horizontalStack=0;resizeParent=1;resizeParentMax=0;resizeLast=0;collapsible=1;marginBottom=0;whiteSpace=wrap;html=1;fillColor=#dae8fc;strokeColor=#6c8ebf;rounded=1;" parent="1" vertex="1">
          <mxGeometry x="-200" y="80" width="160" height="390" as="geometry" />
        </mxCell>
        <mxCell id="jj6mDVSmWfJWmYbKzBOA-2" value="&lt;p class=&quot;MsoNormal&quot;&gt;&amp;nbsp;ISBN: String&amp;nbsp; &amp;nbsp; &amp;nbsp; &amp;nbsp; &amp;nbsp; &amp;nbsp; &amp;nbsp; &amp;nbsp; &amp;nbsp; &amp;nbsp; &amp;nbsp; &amp;nbsp;&amp;nbsp;&lt;/p&gt;&lt;p class=&quot;MsoNormal&quot;&gt;&amp;nbsp;StockQuantity: Int&lt;/p&gt;&lt;p class=&quot;MsoNormal&quot;&gt;Author(s): List&amp;lt;Author&amp;gt;&amp;nbsp; &amp;nbsp; &amp;nbsp; &amp;nbsp;&lt;/p&gt;&lt;p class=&quot;MsoNormal&quot;&gt;&amp;nbsp;Genre(s): List&amp;lt;Genre&amp;gt;&amp;nbsp; &amp;nbsp; &amp;nbsp; &amp;nbsp;&lt;/p&gt;&lt;p class=&quot;MsoNormal&quot;&gt;&amp;nbsp;Price: Decimal&amp;nbsp; &amp;nbsp; &amp;nbsp; &amp;nbsp; &amp;nbsp; &amp;nbsp; &amp;nbsp; &amp;nbsp; &amp;nbsp; &amp;nbsp; &amp;nbsp; &amp;nbsp; &amp;nbsp; &amp;nbsp;&amp;nbsp;&lt;/p&gt;" style="text;strokeColor=none;fillColor=none;align=left;verticalAlign=top;spacingLeft=4;spacingRight=4;overflow=hidden;rotatable=0;points=[[0,0.5],[1,0.5]];portConstraint=eastwest;whiteSpace=wrap;html=1;rounded=1;" parent="jj6mDVSmWfJWmYbKzBOA-1" vertex="1">
          <mxGeometry y="26" width="160" height="144" as="geometry" />
        </mxCell>
        <mxCell id="jj6mDVSmWfJWmYbKzBOA-3" value="" style="line;strokeWidth=1;fillColor=none;align=left;verticalAlign=middle;spacingTop=-1;spacingLeft=3;spacingRight=3;rotatable=0;labelPosition=right;points=[];portConstraint=eastwest;strokeColor=inherit;rounded=1;" parent="jj6mDVSmWfJWmYbKzBOA-1" vertex="1">
          <mxGeometry y="170" width="160" height="8" as="geometry" />
        </mxCell>
        <mxCell id="jj6mDVSmWfJWmYbKzBOA-4" value="&lt;p class=&quot;MsoNormal&quot;&gt;+ getISBN(): String&lt;span style=&quot;mso-spacerun:yes&quot;&gt;&amp;nbsp; &amp;nbsp; &amp;nbsp; &amp;nbsp; &amp;nbsp; &amp;nbsp;&amp;nbsp;&lt;/span&gt;&lt;/p&gt;&lt;p class=&quot;MsoNormal&quot;&gt;&lt;span style=&quot;background-color: initial;&quot;&gt;+ getTitle(): String&lt;/span&gt;&lt;span style=&quot;background-color: initial;&quot;&gt;&amp;nbsp; &amp;nbsp; &amp;nbsp; &amp;nbsp; &amp;nbsp; &amp;nbsp; &amp;nbsp;&amp;nbsp;&lt;/span&gt;&lt;/p&gt;&lt;p class=&quot;MsoNormal&quot;&gt;&lt;span style=&quot;background-color: initial;&quot;&gt;+ getAuthors(): List&amp;lt;Author&amp;gt;&lt;/span&gt;&lt;span style=&quot;background-color: initial;&quot;&gt;&amp;nbsp;&amp;nbsp;&lt;/span&gt;&lt;/p&gt;&lt;p class=&quot;MsoNormal&quot;&gt;&lt;span style=&quot;background-color: initial;&quot;&gt;+ getGenres(): List&amp;lt;Genre&amp;gt;&lt;/span&gt;&lt;span style=&quot;background-color: initial;&quot;&gt;&amp;nbsp; &amp;nbsp;&lt;/span&gt;&lt;/p&gt;&lt;p class=&quot;MsoNormal&quot;&gt;&lt;span style=&quot;background-color: initial;&quot;&gt;+ getPrice(): Decimal&lt;/span&gt;&lt;span style=&quot;background-color: initial;&quot;&gt;&amp;nbsp; &amp;nbsp; &amp;nbsp; &amp;nbsp;&amp;nbsp;&lt;/span&gt;&lt;/p&gt;&lt;p class=&quot;MsoNormal&quot;&gt;&lt;span style=&quot;background-color: initial;&quot;&gt;+ setPrice(price:Decimal): void&lt;/span&gt;&lt;span style=&quot;background-color: initial;&quot;&gt;&amp;nbsp; &amp;nbsp; &amp;nbsp; &amp;nbsp; &amp;nbsp; &amp;nbsp;&lt;/span&gt;&lt;/p&gt;&lt;br&gt;&lt;br&gt;&lt;br&gt;&lt;br&gt;&lt;div&gt;&lt;br&gt;&lt;/div&gt;" style="text;strokeColor=none;fillColor=none;align=left;verticalAlign=top;spacingLeft=4;spacingRight=4;overflow=hidden;rotatable=0;points=[[0,0.5],[1,0.5]];portConstraint=eastwest;whiteSpace=wrap;html=1;rounded=1;" parent="jj6mDVSmWfJWmYbKzBOA-1" vertex="1">
          <mxGeometry y="178" width="160" height="212" as="geometry" />
        </mxCell>
        <mxCell id="jj6mDVSmWfJWmYbKzBOA-5" value="SUPPLIER" style="swimlane;fontStyle=1;align=center;verticalAlign=top;childLayout=stackLayout;horizontal=1;startSize=26;horizontalStack=0;resizeParent=1;resizeParentMax=0;resizeLast=0;collapsible=1;marginBottom=0;whiteSpace=wrap;html=1;fillColor=#d5e8d4;strokeColor=#82b366;rounded=1;arcSize=4;" parent="1" vertex="1">
          <mxGeometry x="90" y="-10" width="160" height="220" as="geometry">
            <mxRectangle x="240" y="40" width="100" height="30" as="alternateBounds" />
          </mxGeometry>
        </mxCell>
        <mxCell id="jj6mDVSmWfJWmYbKzBOA-6" value="&lt;p class=&quot;MsoNormal&quot;&gt;Name: String&lt;span style=&quot;mso-spacerun:yes&quot;&gt;&amp;nbsp; &amp;nbsp; &amp;nbsp; &amp;nbsp; &amp;nbsp; &amp;nbsp; &amp;nbsp; &amp;nbsp; &amp;nbsp; &amp;nbsp; &amp;nbsp; &amp;nbsp;&lt;/span&gt;&lt;/p&gt;&lt;p class=&quot;MsoNormal&quot;&gt;Address:String&lt;span style=&quot;mso-spacerun:yes&quot;&gt;&amp;nbsp; &amp;nbsp; &amp;nbsp; &amp;nbsp;&lt;/span&gt;&lt;/p&gt;&lt;p class=&quot;MsoNormal&quot;&gt;&lt;span style=&quot;background-color: initial;&quot;&gt;ContactInfo: String&lt;/span&gt;&lt;span style=&quot;background-color: initial;&quot;&gt;&amp;nbsp; &amp;nbsp; &amp;nbsp; &amp;nbsp; &amp;nbsp; &amp;nbsp; &amp;nbsp; &amp;nbsp; &amp;nbsp; &amp;nbsp; &amp;nbsp;&amp;nbsp;&lt;/span&gt;&lt;/p&gt;&amp;nbsp; &amp;nbsp; &amp;nbsp; &amp;nbsp; &amp;nbsp; &amp;nbsp; &amp;nbsp; &amp;nbsp;&amp;nbsp;&lt;br&gt;&lt;br&gt;&lt;br&gt;&lt;div&gt;&lt;br&gt;&lt;/div&gt;" style="text;strokeColor=none;fillColor=none;align=left;verticalAlign=top;spacingLeft=4;spacingRight=4;overflow=hidden;rotatable=0;points=[[0,0.5],[1,0.5]];portConstraint=eastwest;whiteSpace=wrap;html=1;rounded=1;" parent="jj6mDVSmWfJWmYbKzBOA-5" vertex="1">
          <mxGeometry y="26" width="160" height="94" as="geometry" />
        </mxCell>
        <mxCell id="jj6mDVSmWfJWmYbKzBOA-7" value="" style="line;strokeWidth=1;fillColor=none;align=left;verticalAlign=middle;spacingTop=-1;spacingLeft=3;spacingRight=3;rotatable=0;labelPosition=right;points=[];portConstraint=eastwest;strokeColor=inherit;rounded=1;" parent="jj6mDVSmWfJWmYbKzBOA-5" vertex="1">
          <mxGeometry y="120" width="160" height="8" as="geometry" />
        </mxCell>
        <mxCell id="jj6mDVSmWfJWmYbKzBOA-8" value="&lt;p class=&quot;MsoNormal&quot;&gt;+ getName(): String&lt;span style=&quot;mso-spacerun:yes&quot;&gt;&amp;nbsp; &amp;nbsp; &amp;nbsp; &amp;nbsp; &amp;nbsp; &amp;nbsp;&lt;/span&gt;&lt;/p&gt;&lt;p class=&quot;MsoNormal&quot;&gt;+ getAddress():String&lt;span style=&quot;mso-spacerun:yes&quot;&gt;&amp;nbsp; &amp;nbsp; &amp;nbsp; &amp;nbsp; &amp;nbsp;&amp;nbsp;&lt;/span&gt;&lt;/p&gt;&lt;p class=&quot;MsoNormal&quot;&gt;&lt;span style=&quot;background-color: initial;&quot;&gt;+ getContactInfo():&lt;/span&gt;&lt;span style=&quot;background-color: initial;&quot;&gt;String&lt;/span&gt;&lt;span style=&quot;background-color: initial;&quot;&gt;&amp;nbsp; &amp;nbsp; &amp;nbsp; &amp;nbsp; &amp;nbsp; &amp;nbsp; &amp;nbsp; &amp;nbsp; &amp;nbsp;&lt;/span&gt;&lt;/p&gt;&lt;br&gt;&lt;br&gt;&lt;br&gt;&lt;br&gt;&lt;div&gt;&lt;br&gt;&lt;/div&gt;" style="text;strokeColor=none;fillColor=none;align=left;verticalAlign=top;spacingLeft=4;spacingRight=4;overflow=hidden;rotatable=0;points=[[0,0.5],[1,0.5]];portConstraint=eastwest;whiteSpace=wrap;html=1;rounded=1;" parent="jj6mDVSmWfJWmYbKzBOA-5" vertex="1">
          <mxGeometry y="128" width="160" height="92" as="geometry" />
        </mxCell>
        <mxCell id="jj6mDVSmWfJWmYbKzBOA-9" value="PURCHASE" style="swimlane;fontStyle=1;align=center;verticalAlign=top;childLayout=stackLayout;horizontal=1;startSize=26;horizontalStack=0;resizeParent=1;resizeParentMax=0;resizeLast=0;collapsible=1;marginBottom=0;whiteSpace=wrap;html=1;fillColor=#ffe6cc;strokeColor=#d79b00;rounded=1;arcSize=12;" parent="1" vertex="1">
          <mxGeometry x="-520" y="50" width="160" height="240" as="geometry" />
        </mxCell>
        <mxCell id="jj6mDVSmWfJWmYbKzBOA-10" value="&lt;p class=&quot;MsoNormal&quot;&gt;&lt;font style=&quot;font-size: 10px;&quot;&gt;PurchaseID: String&amp;nbsp; &amp;nbsp; &amp;nbsp; &amp;nbsp; &amp;nbsp; &amp;nbsp; &amp;nbsp;&amp;nbsp;&lt;/font&gt;&lt;/p&gt;&lt;p class=&quot;MsoNormal&quot;&gt;&lt;font style=&quot;font-size: 10px;&quot;&gt;&lt;span style=&quot;background-color: initial;&quot;&gt;Date: Date&lt;/span&gt;&lt;span style=&quot;background-color: initial;&quot;&gt;&amp;nbsp; &amp;nbsp; &amp;nbsp; &amp;nbsp; &amp;nbsp; &amp;nbsp; &amp;nbsp; &amp;nbsp; &amp;nbsp; &amp;nbsp; &amp;nbsp; &amp;nbsp;&lt;/span&gt;&lt;/font&gt;&lt;/p&gt;&lt;font style=&quot;font-size: 10px;&quot;&gt;&lt;span style=&quot;line-height: 115%; font-family: Aptos, sans-serif;&quot;&gt;TotalAmount: Decimal&amp;nbsp;&amp;nbsp;&amp;nbsp;&amp;nbsp;&amp;nbsp;&amp;nbsp;&amp;nbsp;&amp;nbsp;&amp;nbsp;&amp;nbsp;&amp;nbsp;&amp;nbsp;&amp;nbsp;&amp;nbsp;&amp;nbsp;&amp;nbsp;&amp;nbsp;&amp;nbsp;&amp;nbsp;&amp;nbsp;&amp;nbsp; &lt;/span&gt;&lt;br&gt;&lt;/font&gt;&lt;div&gt;&lt;br&gt;&lt;/div&gt;" style="text;strokeColor=none;fillColor=none;align=left;verticalAlign=top;spacingLeft=4;spacingRight=4;overflow=hidden;rotatable=0;points=[[0,0.5],[1,0.5]];portConstraint=eastwest;whiteSpace=wrap;html=1;rounded=1;" parent="jj6mDVSmWfJWmYbKzBOA-9" vertex="1">
          <mxGeometry y="26" width="160" height="104" as="geometry" />
        </mxCell>
        <mxCell id="jj6mDVSmWfJWmYbKzBOA-11" value="" style="line;strokeWidth=1;fillColor=none;align=left;verticalAlign=middle;spacingTop=-1;spacingLeft=3;spacingRight=3;rotatable=0;labelPosition=right;points=[];portConstraint=eastwest;strokeColor=inherit;rounded=1;" parent="jj6mDVSmWfJWmYbKzBOA-9" vertex="1">
          <mxGeometry y="130" width="160" height="8" as="geometry" />
        </mxCell>
        <mxCell id="jj6mDVSmWfJWmYbKzBOA-12" value="&lt;p class=&quot;MsoNormal&quot;&gt;+getPurchaseID():String&lt;span style=&quot;mso-spacerun:yes&quot;&gt;&amp;nbsp;&amp;nbsp;&amp;nbsp;&amp;nbsp;&amp;nbsp;&amp;nbsp;&amp;nbsp;&amp;nbsp;&amp;nbsp;&amp;nbsp;&amp;nbsp;&amp;nbsp;&amp;nbsp;&amp;nbsp;&amp;nbsp;&amp;nbsp;&amp;nbsp;&amp;nbsp; &lt;/span&gt;&lt;/p&gt;&lt;p class=&quot;MsoNormal&quot;&gt;+getDate():Date&lt;span style=&quot;mso-spacerun:yes&quot;&gt;&amp;nbsp;&amp;nbsp;&amp;nbsp;&amp;nbsp;&amp;nbsp;&amp;nbsp;&amp;nbsp;&amp;nbsp;&amp;nbsp;&amp;nbsp;&amp;nbsp;&amp;nbsp;&amp;nbsp;&amp;nbsp;&amp;nbsp;&amp;nbsp;&amp;nbsp;&amp;nbsp;&amp;nbsp;&amp;nbsp;&amp;nbsp;&amp;nbsp;&amp;nbsp;&amp;nbsp;&amp;nbsp;&amp;nbsp; &lt;/span&gt;&lt;/p&gt;&lt;p class=&quot;MsoNormal&quot;&gt;+ getTotalAmount():&lt;br&gt;Decimal&lt;span style=&quot;mso-spacerun:yes&quot;&gt;&amp;nbsp; &amp;nbsp; &amp;nbsp; &amp;nbsp; &amp;nbsp; &amp;nbsp; &amp;nbsp; &amp;nbsp;&amp;nbsp;&lt;/span&gt;&lt;/p&gt;&lt;br&gt;&lt;br&gt;&lt;div&gt;&lt;br&gt;&lt;/div&gt;" style="text;strokeColor=none;fillColor=none;align=left;verticalAlign=top;spacingLeft=4;spacingRight=4;overflow=hidden;rotatable=0;points=[[0,0.5],[1,0.5]];portConstraint=eastwest;whiteSpace=wrap;html=1;rounded=1;" parent="jj6mDVSmWfJWmYbKzBOA-9" vertex="1">
          <mxGeometry y="138" width="160" height="102" as="geometry" />
        </mxCell>
        <mxCell id="jj6mDVSmWfJWmYbKzBOA-13" value="COSTUMER" style="swimlane;fontStyle=1;align=center;verticalAlign=top;childLayout=stackLayout;horizontal=1;startSize=26;horizontalStack=0;resizeParent=1;resizeParentMax=0;resizeLast=0;collapsible=1;marginBottom=0;whiteSpace=wrap;html=1;fillColor=#fff2cc;strokeColor=#d6b656;rounded=1;arcSize=50;" parent="1" vertex="1">
          <mxGeometry x="-730" y="-280" width="160" height="270" as="geometry" />
        </mxCell>
        <mxCell id="jj6mDVSmWfJWmYbKzBOA-14" value="&lt;p class=&quot;MsoNormal&quot;&gt;CustomerID:String&lt;span style=&quot;mso-spacerun:yes&quot;&gt;&amp;nbsp;&amp;nbsp;&amp;nbsp;&amp;nbsp;&amp;nbsp;&amp;nbsp;&amp;nbsp;&amp;nbsp;&amp;nbsp;&amp;nbsp;&amp;nbsp;&amp;nbsp;&amp;nbsp;&amp;nbsp;&amp;nbsp;&amp;nbsp;&amp;nbsp;&amp;nbsp;&amp;nbsp;&amp;nbsp;&amp;nbsp;&amp;nbsp;&amp;nbsp; &lt;/span&gt;&lt;/p&gt;&lt;p class=&quot;MsoNormal&quot;&gt;Name:String&lt;span style=&quot;mso-spacerun:yes&quot;&gt;&amp;nbsp;&amp;nbsp;&amp;nbsp;&amp;nbsp;&amp;nbsp;&amp;nbsp;&amp;nbsp;&amp;nbsp;&amp;nbsp;&amp;nbsp;&amp;nbsp;&amp;nbsp;&amp;nbsp;&amp;nbsp;&amp;nbsp;&amp;nbsp;&amp;nbsp;&amp;nbsp;&amp;nbsp;&amp;nbsp;&amp;nbsp;&amp;nbsp;&amp;nbsp;&amp;nbsp;&amp;nbsp;&amp;nbsp;&amp;nbsp;&amp;nbsp;&amp;nbsp; &lt;/span&gt;&lt;/p&gt;&lt;p class=&quot;MsoNormal&quot;&gt;Email: String&lt;span style=&quot;mso-spacerun:yes&quot;&gt;&amp;nbsp; &amp;nbsp; &amp;nbsp; &amp;nbsp; &amp;nbsp; &amp;nbsp; &amp;nbsp; &amp;nbsp; &amp;nbsp; &amp;nbsp; &amp;nbsp; &amp;nbsp;&lt;/span&gt;&lt;/p&gt;&lt;p class=&quot;MsoNormal&quot;&gt;&lt;span style=&quot;background-color: initial;&quot;&gt;Address:String&lt;/span&gt;&lt;span style=&quot;background-color: initial;&quot;&gt;&amp;nbsp; &amp;nbsp; &amp;nbsp; &amp;nbsp; &amp;nbsp; &amp;nbsp; &amp;nbsp; &amp;nbsp; &amp;nbsp; &amp;nbsp; &amp;nbsp; &amp;nbsp; &amp;nbsp;&amp;nbsp;&lt;/span&gt;&lt;/p&gt;&lt;br&gt;&lt;br&gt;&lt;br&gt;&lt;br&gt;&lt;div&gt;&lt;br/&gt;&lt;/div&gt;" style="text;strokeColor=none;fillColor=none;align=left;verticalAlign=top;spacingLeft=4;spacingRight=4;overflow=hidden;rotatable=0;points=[[0,0.5],[1,0.5]];portConstraint=eastwest;whiteSpace=wrap;html=1;rounded=1;" parent="jj6mDVSmWfJWmYbKzBOA-13" vertex="1">
          <mxGeometry y="26" width="160" height="114" as="geometry" />
        </mxCell>
        <mxCell id="jj6mDVSmWfJWmYbKzBOA-15" value="" style="line;strokeWidth=1;fillColor=none;align=left;verticalAlign=middle;spacingTop=-1;spacingLeft=3;spacingRight=3;rotatable=0;labelPosition=right;points=[];portConstraint=eastwest;strokeColor=inherit;rounded=1;" parent="jj6mDVSmWfJWmYbKzBOA-13" vertex="1">
          <mxGeometry y="140" width="160" height="8" as="geometry" />
        </mxCell>
        <mxCell id="jj6mDVSmWfJWmYbKzBOA-16" value="&lt;p class=&quot;MsoNormal&quot;&gt;+getCustomerID(): String&lt;span style=&quot;mso-spacerun:yes&quot;&gt;&amp;nbsp; &amp;nbsp;&amp;nbsp;&lt;/span&gt;&lt;/p&gt;&lt;p class=&quot;MsoNormal&quot;&gt;+getName(): String&lt;span style=&quot;mso-spacerun:yes&quot;&gt;&amp;nbsp; &amp;nbsp; &amp;nbsp; &amp;nbsp;&amp;nbsp;&lt;/span&gt;&lt;/p&gt;&lt;p class=&quot;MsoNormal&quot;&gt;+getEmail(): String&lt;span style=&quot;mso-spacerun:yes&quot;&gt;&amp;nbsp; &amp;nbsp; &amp;nbsp; &amp;nbsp; &amp;nbsp; &amp;nbsp; &amp;nbsp;&amp;nbsp;&lt;/span&gt;&lt;/p&gt;&lt;p class=&quot;MsoNormal&quot;&gt;+getAddress():String&lt;span style=&quot;mso-spacerun:yes&quot;&gt;&amp;nbsp;&amp;nbsp;&amp;nbsp;&amp;nbsp;&amp;nbsp;&amp;nbsp;&amp;nbsp;&amp;nbsp;&amp;nbsp;&amp;nbsp;&amp;nbsp;&amp;nbsp;&amp;nbsp;&amp;nbsp;&amp;nbsp;&amp;nbsp;&amp;nbsp;&amp;nbsp;&amp;nbsp;&amp;nbsp; &lt;/span&gt;&lt;/p&gt;&lt;br&gt;&lt;br&gt;&lt;br&gt;&lt;br&gt;&lt;div&gt;&lt;br&gt;&lt;/div&gt;" style="text;strokeColor=none;fillColor=none;align=left;verticalAlign=top;spacingLeft=4;spacingRight=4;overflow=hidden;rotatable=0;points=[[0,0.5],[1,0.5]];portConstraint=eastwest;whiteSpace=wrap;html=1;rounded=1;" parent="jj6mDVSmWfJWmYbKzBOA-13" vertex="1">
          <mxGeometry y="148" width="160" height="122" as="geometry" />
        </mxCell>
        <mxCell id="jj6mDVSmWfJWmYbKzBOA-17" value="USER" style="swimlane;fontStyle=1;align=center;verticalAlign=top;childLayout=stackLayout;horizontal=1;startSize=26;horizontalStack=0;resizeParent=1;resizeParentMax=0;resizeLast=0;collapsible=1;marginBottom=0;whiteSpace=wrap;html=1;fillColor=#f8cecc;strokeColor=#b85450;rounded=1;" parent="1" vertex="1">
          <mxGeometry x="-230" y="-460" width="170" height="280" as="geometry" />
        </mxCell>
        <mxCell id="jj6mDVSmWfJWmYbKzBOA-18" value="UserID : String&lt;div&gt;Username: String&lt;/div&gt;&lt;div&gt;Password: String&lt;/div&gt;" style="text;strokeColor=none;fillColor=none;align=left;verticalAlign=top;spacingLeft=4;spacingRight=4;overflow=hidden;rotatable=0;points=[[0,0.5],[1,0.5]];portConstraint=eastwest;whiteSpace=wrap;html=1;rounded=1;" parent="jj6mDVSmWfJWmYbKzBOA-17" vertex="1">
          <mxGeometry y="26" width="170" height="54" as="geometry" />
        </mxCell>
        <mxCell id="jj6mDVSmWfJWmYbKzBOA-19" value="" style="line;strokeWidth=1;fillColor=none;align=left;verticalAlign=middle;spacingTop=-1;spacingLeft=3;spacingRight=3;rotatable=0;labelPosition=right;points=[];portConstraint=eastwest;strokeColor=inherit;rounded=1;" parent="jj6mDVSmWfJWmYbKzBOA-17" vertex="1">
          <mxGeometry y="80" width="170" height="8" as="geometry" />
        </mxCell>
        <mxCell id="jj6mDVSmWfJWmYbKzBOA-20" value="+getUserID&lt;div&gt;+getUsername&lt;/div&gt;&lt;div&gt;+getPassword&lt;/div&gt;&lt;div&gt;+definePermissions&lt;/div&gt;&lt;div&gt;+defineAccessRights&lt;/div&gt;&lt;div&gt;+defineRole&lt;/div&gt;&lt;div&gt;+grantAccess&lt;/div&gt;&lt;div&gt;+searchUser&lt;/div&gt;&lt;div&gt;+selectAccessType&lt;/div&gt;&lt;div&gt;+suspendAccess&lt;/div&gt;&lt;div&gt;+revokeAccess&lt;/div&gt;&lt;div&gt;+performAction&lt;/div&gt;" style="text;strokeColor=none;fillColor=none;align=left;verticalAlign=top;spacingLeft=4;spacingRight=4;overflow=hidden;rotatable=0;points=[[0,0.5],[1,0.5]];portConstraint=eastwest;whiteSpace=wrap;html=1;rounded=1;" parent="jj6mDVSmWfJWmYbKzBOA-17" vertex="1">
          <mxGeometry y="88" width="170" height="192" as="geometry" />
        </mxCell>
        <mxCell id="jj6mDVSmWfJWmYbKzBOA-22" value="ACCESS LEVEL" style="swimlane;fontStyle=1;align=center;verticalAlign=top;childLayout=stackLayout;horizontal=1;startSize=26;horizontalStack=0;resizeParent=1;resizeParentMax=0;resizeLast=0;collapsible=1;marginBottom=0;whiteSpace=wrap;html=1;fillColor=#e1d5e7;strokeColor=#9673a6;rounded=1;arcSize=15;" parent="1" vertex="1">
          <mxGeometry y="-160" width="160" height="110" as="geometry" />
        </mxCell>
        <mxCell id="jj6mDVSmWfJWmYbKzBOA-23" value="ID : String&lt;div&gt;Name: String&lt;/div&gt;" style="text;strokeColor=none;fillColor=none;align=left;verticalAlign=top;spacingLeft=4;spacingRight=4;overflow=hidden;rotatable=0;points=[[0,0.5],[1,0.5]];portConstraint=eastwest;whiteSpace=wrap;html=1;rounded=1;" parent="jj6mDVSmWfJWmYbKzBOA-22" vertex="1">
          <mxGeometry y="26" width="160" height="34" as="geometry" />
        </mxCell>
        <mxCell id="jj6mDVSmWfJWmYbKzBOA-24" value="" style="line;strokeWidth=1;fillColor=none;align=left;verticalAlign=middle;spacingTop=-1;spacingLeft=3;spacingRight=3;rotatable=0;labelPosition=right;points=[];portConstraint=eastwest;strokeColor=inherit;rounded=1;" parent="jj6mDVSmWfJWmYbKzBOA-22" vertex="1">
          <mxGeometry y="60" width="160" height="8" as="geometry" />
        </mxCell>
        <mxCell id="jj6mDVSmWfJWmYbKzBOA-25" value="+ getID() : String&lt;div&gt;+ getname() : String&amp;nbsp;&lt;/div&gt;" style="text;strokeColor=none;fillColor=none;align=left;verticalAlign=top;spacingLeft=4;spacingRight=4;overflow=hidden;rotatable=0;points=[[0,0.5],[1,0.5]];portConstraint=eastwest;whiteSpace=wrap;html=1;rounded=1;" parent="jj6mDVSmWfJWmYbKzBOA-22" vertex="1">
          <mxGeometry y="68" width="160" height="42" as="geometry" />
        </mxCell>
        <mxCell id="JuaUSmUxXDZBVH47TJ_k-1" value="CATEGORY" style="swimlane;fontStyle=1;align=center;verticalAlign=top;childLayout=stackLayout;horizontal=1;startSize=26;horizontalStack=0;resizeParent=1;resizeParentMax=0;resizeLast=0;collapsible=1;marginBottom=0;whiteSpace=wrap;html=1;fillColor=#a0522d;fontColor=#ffffff;strokeColor=#6D1F00;rounded=1;" parent="1" vertex="1">
          <mxGeometry x="40" y="280" width="160" height="130" as="geometry" />
        </mxCell>
        <mxCell id="JuaUSmUxXDZBVH47TJ_k-2" value="CategoryID : String&lt;div&gt;Categoryname : String&lt;/div&gt;" style="text;strokeColor=none;fillColor=none;align=left;verticalAlign=top;spacingLeft=4;spacingRight=4;overflow=hidden;rotatable=0;points=[[0,0.5],[1,0.5]];portConstraint=eastwest;whiteSpace=wrap;html=1;rounded=1;" parent="JuaUSmUxXDZBVH47TJ_k-1" vertex="1">
          <mxGeometry y="26" width="160" height="44" as="geometry" />
        </mxCell>
        <mxCell id="JuaUSmUxXDZBVH47TJ_k-3" value="" style="line;strokeWidth=1;fillColor=none;align=left;verticalAlign=middle;spacingTop=-1;spacingLeft=3;spacingRight=3;rotatable=0;labelPosition=right;points=[];portConstraint=eastwest;strokeColor=inherit;rounded=1;" parent="JuaUSmUxXDZBVH47TJ_k-1" vertex="1">
          <mxGeometry y="70" width="160" height="8" as="geometry" />
        </mxCell>
        <mxCell id="JuaUSmUxXDZBVH47TJ_k-4" value="+ getCategoryID() : String&lt;div&gt;+ getCategoryname() : String&lt;/div&gt;" style="text;strokeColor=none;fillColor=none;align=left;verticalAlign=top;spacingLeft=4;spacingRight=4;overflow=hidden;rotatable=0;points=[[0,0.5],[1,0.5]];portConstraint=eastwest;whiteSpace=wrap;html=1;rounded=1;" parent="JuaUSmUxXDZBVH47TJ_k-1" vertex="1">
          <mxGeometry y="78" width="160" height="52" as="geometry" />
        </mxCell>
        <mxCell id="JuaUSmUxXDZBVH47TJ_k-13" value="INVENTORY" style="swimlane;fontStyle=1;align=center;verticalAlign=top;childLayout=stackLayout;horizontal=1;startSize=26;horizontalStack=0;resizeParent=1;resizeParentMax=0;resizeLast=0;collapsible=1;marginBottom=0;whiteSpace=wrap;html=1;fillColor=#0050ef;fontColor=#ffffff;strokeColor=#001DBC;rounded=1;arcSize=0;" parent="1" vertex="1">
          <mxGeometry x="-360" y="-150" width="160" height="150" as="geometry" />
        </mxCell>
        <mxCell id="JuaUSmUxXDZBVH47TJ_k-14" value="Book : book&lt;div&gt;Quantity : Integer&lt;/div&gt;" style="text;strokeColor=none;fillColor=none;align=left;verticalAlign=top;spacingLeft=4;spacingRight=4;overflow=hidden;rotatable=0;points=[[0,0.5],[1,0.5]];portConstraint=eastwest;whiteSpace=wrap;html=1;rounded=1;" parent="JuaUSmUxXDZBVH47TJ_k-13" vertex="1">
          <mxGeometry y="26" width="160" height="44" as="geometry" />
        </mxCell>
        <mxCell id="JuaUSmUxXDZBVH47TJ_k-15" value="" style="line;strokeWidth=1;fillColor=none;align=left;verticalAlign=middle;spacingTop=-1;spacingLeft=3;spacingRight=3;rotatable=0;labelPosition=right;points=[];portConstraint=eastwest;strokeColor=inherit;rounded=1;" parent="JuaUSmUxXDZBVH47TJ_k-13" vertex="1">
          <mxGeometry y="70" width="160" height="8" as="geometry" />
        </mxCell>
        <mxCell id="JuaUSmUxXDZBVH47TJ_k-16" value="+ getBook() : book&lt;div&gt;+ getQuantity() : Integer&lt;/div&gt;&lt;div&gt;+ updateQuantity(Integer) : Void&lt;/div&gt;" style="text;strokeColor=none;fillColor=none;align=left;verticalAlign=top;spacingLeft=4;spacingRight=4;overflow=hidden;rotatable=0;points=[[0,0.5],[1,0.5]];portConstraint=eastwest;whiteSpace=wrap;html=1;rounded=1;" parent="JuaUSmUxXDZBVH47TJ_k-13" vertex="1">
          <mxGeometry y="78" width="160" height="72" as="geometry" />
        </mxCell>
        <mxCell id="JuaUSmUxXDZBVH47TJ_k-17" value="ORDER" style="swimlane;fontStyle=1;align=center;verticalAlign=top;childLayout=stackLayout;horizontal=1;startSize=26;horizontalStack=0;resizeParent=1;resizeParentMax=0;resizeLast=0;collapsible=1;marginBottom=0;whiteSpace=wrap;html=1;fillColor=#6a00ff;fontColor=#ffffff;strokeColor=#3700CC;rounded=1;" parent="1" vertex="1">
          <mxGeometry x="-550" y="-400" width="160" height="140" as="geometry" />
        </mxCell>
        <mxCell id="JuaUSmUxXDZBVH47TJ_k-18" value="OrderID : String&lt;div&gt;Date : date&lt;/div&gt;&lt;div&gt;Status: String&lt;/div&gt;" style="text;strokeColor=none;fillColor=none;align=left;verticalAlign=top;spacingLeft=4;spacingRight=4;overflow=hidden;rotatable=0;points=[[0,0.5],[1,0.5]];portConstraint=eastwest;whiteSpace=wrap;html=1;rounded=1;" parent="JuaUSmUxXDZBVH47TJ_k-17" vertex="1">
          <mxGeometry y="26" width="160" height="54" as="geometry" />
        </mxCell>
        <mxCell id="JuaUSmUxXDZBVH47TJ_k-19" value="" style="line;strokeWidth=1;fillColor=none;align=left;verticalAlign=middle;spacingTop=-1;spacingLeft=3;spacingRight=3;rotatable=0;labelPosition=right;points=[];portConstraint=eastwest;strokeColor=inherit;rounded=1;" parent="JuaUSmUxXDZBVH47TJ_k-17" vertex="1">
          <mxGeometry y="80" width="160" height="8" as="geometry" />
        </mxCell>
        <mxCell id="JuaUSmUxXDZBVH47TJ_k-20" value="+ getOrderID() : String&lt;div&gt;+ getDate() : date&lt;/div&gt;&lt;div&gt;+ getStatus() : String&lt;/div&gt;" style="text;strokeColor=none;fillColor=none;align=left;verticalAlign=top;spacingLeft=4;spacingRight=4;overflow=hidden;rotatable=0;points=[[0,0.5],[1,0.5]];portConstraint=eastwest;whiteSpace=wrap;html=1;rounded=1;" parent="JuaUSmUxXDZBVH47TJ_k-17" vertex="1">
          <mxGeometry y="88" width="160" height="52" as="geometry" />
        </mxCell>
        <mxCell id="JuaUSmUxXDZBVH47TJ_k-21" value="FEEDBACK" style="swimlane;fontStyle=1;align=center;verticalAlign=top;childLayout=stackLayout;horizontal=1;startSize=26;horizontalStack=0;resizeParent=1;resizeParentMax=0;resizeLast=0;collapsible=1;marginBottom=0;whiteSpace=wrap;html=1;fillColor=#a20025;fontColor=#ffffff;strokeColor=#6F0000;rounded=1;arcSize=0;" parent="1" vertex="1">
          <mxGeometry x="-880" y="80" width="160" height="150" as="geometry" />
        </mxCell>
        <mxCell id="JuaUSmUxXDZBVH47TJ_k-22" value="FeedbackID : String&lt;div&gt;Date : Date&lt;/div&gt;&lt;div&gt;FeedbackText: String&lt;/div&gt;" style="text;strokeColor=none;fillColor=none;align=left;verticalAlign=top;spacingLeft=4;spacingRight=4;overflow=hidden;rotatable=0;points=[[0,0.5],[1,0.5]];portConstraint=eastwest;whiteSpace=wrap;html=1;rounded=1;" parent="JuaUSmUxXDZBVH47TJ_k-21" vertex="1">
          <mxGeometry y="26" width="160" height="54" as="geometry" />
        </mxCell>
        <mxCell id="JuaUSmUxXDZBVH47TJ_k-23" value="" style="line;strokeWidth=1;fillColor=none;align=left;verticalAlign=middle;spacingTop=-1;spacingLeft=3;spacingRight=3;rotatable=0;labelPosition=right;points=[];portConstraint=eastwest;strokeColor=inherit;rounded=1;" parent="JuaUSmUxXDZBVH47TJ_k-21" vertex="1">
          <mxGeometry y="80" width="160" height="8" as="geometry" />
        </mxCell>
        <mxCell id="JuaUSmUxXDZBVH47TJ_k-24" value="+ getFeedbackID(): String&lt;div&gt;+ getDate() : Date&lt;/div&gt;&lt;div&gt;+ getContent() : String&lt;/div&gt;" style="text;strokeColor=none;fillColor=none;align=left;verticalAlign=top;spacingLeft=4;spacingRight=4;overflow=hidden;rotatable=0;points=[[0,0.5],[1,0.5]];portConstraint=eastwest;whiteSpace=wrap;html=1;rounded=1;" parent="JuaUSmUxXDZBVH47TJ_k-21" vertex="1">
          <mxGeometry y="88" width="160" height="62" as="geometry" />
        </mxCell>
        <mxCell id="Iaoxdh71TG7Aj3EHQRpP-2" value="Provides Feedback" style="endArrow=none;html=1;rounded=0;exitX=0.25;exitY=0;exitDx=0;exitDy=0;entryX=0.125;entryY=-0.001;entryDx=0;entryDy=0;entryPerimeter=0;" parent="1" source="JuaUSmUxXDZBVH47TJ_k-21" target="jj6mDVSmWfJWmYbKzBOA-13" edge="1">
          <mxGeometry width="50" height="50" relative="1" as="geometry">
            <mxPoint x="-280" y="80" as="sourcePoint" />
            <mxPoint x="-230" y="30" as="targetPoint" />
            <Array as="points">
              <mxPoint x="-840" y="-140" />
            </Array>
          </mxGeometry>
        </mxCell>
        <mxCell id="Iaoxdh71TG7Aj3EHQRpP-3" value="Made By" style="endArrow=none;html=1;rounded=0;exitX=0.25;exitY=0;exitDx=0;exitDy=0;entryX=0.75;entryY=0;entryDx=0;entryDy=0;" parent="1" source="jj6mDVSmWfJWmYbKzBOA-9" target="jj6mDVSmWfJWmYbKzBOA-13" edge="1">
          <mxGeometry width="50" height="50" relative="1" as="geometry">
            <mxPoint x="-280" y="80" as="sourcePoint" />
            <mxPoint x="-230" y="30" as="targetPoint" />
            <Array as="points">
              <mxPoint x="-480" y="-120" />
            </Array>
          </mxGeometry>
        </mxCell>
        <mxCell id="Iaoxdh71TG7Aj3EHQRpP-4" value="Associated" style="endArrow=none;html=1;rounded=0;exitX=0.25;exitY=0;exitDx=0;exitDy=0;entryX=0.75;entryY=0;entryDx=0;entryDy=0;" parent="1" source="JuaUSmUxXDZBVH47TJ_k-13" target="JuaUSmUxXDZBVH47TJ_k-17" edge="1">
          <mxGeometry width="50" height="50" relative="1" as="geometry">
            <mxPoint x="-280" y="80" as="sourcePoint" />
            <mxPoint x="-230" y="30" as="targetPoint" />
            <Array as="points">
              <mxPoint x="-320" y="-280" />
            </Array>
          </mxGeometry>
        </mxCell>
        <mxCell id="Iaoxdh71TG7Aj3EHQRpP-5" value="Has Access" style="endArrow=none;html=1;rounded=0;exitX=0.88;exitY=0.051;exitDx=0;exitDy=0;exitPerimeter=0;entryX=0.146;entryY=0.043;entryDx=0;entryDy=0;entryPerimeter=0;" parent="1" source="jj6mDVSmWfJWmYbKzBOA-17" target="jj6mDVSmWfJWmYbKzBOA-22" edge="1">
          <mxGeometry width="50" height="50" relative="1" as="geometry">
            <mxPoint x="-280" y="80" as="sourcePoint" />
            <mxPoint x="-230" y="30" as="targetPoint" />
          </mxGeometry>
        </mxCell>
        <mxCell id="Iaoxdh71TG7Aj3EHQRpP-6" value="Included in" style="endArrow=none;html=1;rounded=0;exitX=0.75;exitY=0;exitDx=0;exitDy=0;entryX=0.25;entryY=0;entryDx=0;entryDy=0;" parent="1" source="jj6mDVSmWfJWmYbKzBOA-9" target="jj6mDVSmWfJWmYbKzBOA-1" edge="1">
          <mxGeometry width="50" height="50" relative="1" as="geometry">
            <mxPoint x="-280" y="80" as="sourcePoint" />
            <mxPoint x="-230" y="30" as="targetPoint" />
          </mxGeometry>
        </mxCell>
        <mxCell id="Iaoxdh71TG7Aj3EHQRpP-7" value="Contains" style="endArrow=none;html=1;rounded=0;entryX=0.873;entryY=0.037;entryDx=0;entryDy=0;entryPerimeter=0;exitX=0.373;exitY=0.006;exitDx=0;exitDy=0;exitPerimeter=0;" parent="1" source="jj6mDVSmWfJWmYbKzBOA-1" target="JuaUSmUxXDZBVH47TJ_k-13" edge="1">
          <mxGeometry width="50" height="50" relative="1" as="geometry">
            <mxPoint x="-280" y="80" as="sourcePoint" />
            <mxPoint x="-230" y="30" as="targetPoint" />
            <Array as="points">
              <mxPoint x="-140" y="-40" />
            </Array>
          </mxGeometry>
        </mxCell>
        <mxCell id="Iaoxdh71TG7Aj3EHQRpP-8" value="Supplied By" style="endArrow=none;html=1;rounded=0;exitX=0.75;exitY=0;exitDx=0;exitDy=0;entryX=0.25;entryY=0;entryDx=0;entryDy=0;" parent="1" source="jj6mDVSmWfJWmYbKzBOA-1" target="jj6mDVSmWfJWmYbKzBOA-5" edge="1">
          <mxGeometry width="50" height="50" relative="1" as="geometry">
            <mxPoint x="-280" y="80" as="sourcePoint" />
            <mxPoint x="-230" y="30" as="targetPoint" />
          </mxGeometry>
        </mxCell>
        <mxCell id="Iaoxdh71TG7Aj3EHQRpP-9" value="Belongs To" style="endArrow=none;html=1;rounded=0;exitX=1;exitY=0;exitDx=0;exitDy=0;entryX=0.25;entryY=0;entryDx=0;entryDy=0;" parent="1" source="jj6mDVSmWfJWmYbKzBOA-1" target="JuaUSmUxXDZBVH47TJ_k-1" edge="1">
          <mxGeometry width="50" height="50" relative="1" as="geometry">
            <mxPoint x="10" y="230" as="sourcePoint" />
            <mxPoint x="60" y="180" as="targetPoint" />
          </mxGeometry>
        </mxCell>
      </root>
    </mxGraphModel>
  </diagram>
</mxfile>
